<?xml version="1.0" standalone="no"?>
<!DOCTYPE svg PUBLIC "-//W3C//DTD SVG 20010904//EN"
 "http://www.w3.org/TR/2001/REC-SVG-20010904/DTD/svg10.dtd">
<svg version="1.0" xmlns="http://www.w3.org/2000/svg"
 width="512.000000pt" height="512.000000pt" viewBox="0 0 512.000000 512.000000"
 preserveAspectRatio="xMidYMid meet">

<g transform="translate(0.000000,512.000000) scale(0.100000,-0.100000)"
fill="#000000" stroke="none">
<path d="M576 4655 c-114 -41 -164 -169 -116 -298 22 -58 42 -88 188 -277 116
-151 139 -198 219 -438 88 -267 173 -430 272 -527 23 -21 41 -49 41 -60 0 -12
-12 -59 -26 -106 -65 -208 -74 -247 -84 -352 -32 -334 94 -752 251 -833 32
-16 96 -18 131 -5 23 8 24 16 40 198 18 202 37 277 94 362 l27 41 72 -147
c121 -249 242 -445 381 -618 75 -94 234 -255 216 -219 -6 11 -19 27 -28 35
-32 26 -164 210 -229 320 -127 214 -226 429 -322 702 l-57 159 -20 -29 c-12
-15 -54 -68 -94 -118 -111 -137 -156 -244 -177 -420 l-8 -60 -24 53 c-47 100
-67 228 -67 422 1 192 0 187 89 440 20 60 39 134 42 172 7 81 -11 122 -93 211
-75 81 -152 241 -204 425 -83 293 -123 369 -329 637 -33 43 -61 82 -61 87 0
20 270 -119 336 -174 91 -75 133 -90 279 -99 163 -10 216 -21 307 -59 547
-232 1034 -739 1253 -1301 62 -158 339 -708 395 -782 45 -60 61 -73 123 -102
40 -18 99 -40 132 -49 174 -45 288 -96 467 -209 l177 -112 -47 -8 c-160 -27
-228 -43 -319 -76 -122 -45 -149 -62 -169 -104 -15 -31 -14 -34 28 -111 48
-89 155 -204 253 -273 60 -43 166 -98 409 -212 109 -52 223 -121 312 -190 11
-9 -9 12 -45 47 -91 87 -160 135 -351 242 -178 100 -285 175 -365 257 -55 56
-127 169 -123 192 4 17 134 57 253 76 54 9 158 15 263 15 l172 0 0 42 c0 63
-34 123 -99 174 -69 54 -290 211 -388 274 -66 44 -220 110 -405 175 -54 19
-86 36 -104 58 -49 58 -271 529 -356 757 -179 477 -512 907 -931 1204 -112 80
-312 192 -429 242 -122 51 -213 70 -378 80 l-109 7 -53 44 c-63 52 -348 196
-433 218 -72 18 -127 19 -179 0z"/>
</g>
</svg>
